<svg width="181" height="148" viewBox="0 0 181 148" fill="none" xmlns="http://www.w3.org/2000/svg">
<path fill-rule="evenodd" clip-rule="evenodd" d="M171.593 136.683C168.24 141.754 165.7 148 158.886 148C147.417 148 146.796 130.304 135.317 130.304C123.843 130.304 124.464 148 112.995 148C101.526 148 100.905 130.304 89.4257 130.304C77.9517 130.304 78.573 148 67.099 148C55.6299 148 55.0086 130.304 43.5296 130.304C32.0507 130.304 32.6818 148 21.2029 148C17.5985 148 15.064 146.254 12.929 143.856C4.41056 128.957 -0.0476852 112.081 0.000384646 94.9173C0.000384646 42.4908 40.4725 0 90.3971 0C140.331 0 180.799 42.4957 180.799 94.9173C180.799 109.9 177.485 124.073 171.593 136.683Z" fill="#FB70A9"/>
<path fill-rule="evenodd" clip-rule="evenodd" d="M171.593 136.683C168.24 141.754 165.7 148 158.886 148C147.417 148 146.796 130.304 135.317 130.304C123.843 130.304 124.464 148 112.995 148C101.526 148 100.905 130.304 89.4257 130.304C77.9517 130.304 78.573 148 67.099 148C55.6299 148 55.0086 130.304 43.5296 130.304C32.0507 130.304 32.6818 148 21.2029 148C17.5985 148 15.064 146.254 12.929 143.856C4.41056 128.957 -0.0476852 112.081 0.000384646 94.9173C0.000384646 42.4908 40.4725 0 90.3971 0C140.331 0 180.799 42.4957 180.799 94.9173C180.799 109.9 177.485 124.073 171.593 136.683Z" fill="#FB70A9"/>
<path fill-rule="evenodd" clip-rule="evenodd" d="M152.037 146.111C175.724 110.852 176.341 71.7405 153.871 28.7761C171.181 46.5094 180.849 70.3276 180.798 95.1147C180.798 110.043 177.371 124.172 171.262 136.722C167.786 141.774 165.148 148 158.082 148C155.666 148 153.713 147.27 152.037 146.111Z" fill="#E24CA6"/>
<path fill-rule="evenodd" clip-rule="evenodd" d="M85.5497 118.587C116.989 118.587 130.223 100.344 130.223 74.4341C130.223 48.5144 110.228 24.6667 85.5497 24.6667C60.8808 24.6667 40.8814 48.5193 40.8814 74.4292C40.8814 100.344 54.1108 118.587 85.5497 118.587Z" fill="white"/>
<path d="M73.5431 75.8993C82.7934 75.8993 90.2931 67.6113 90.2931 57.3993C90.2931 47.1824 82.7983 38.8993 73.5431 38.8993C64.2929 38.8993 56.7932 47.1824 56.7932 57.3993C56.7932 67.6113 64.288 75.8993 73.5431 75.8993Z" fill="#030776"/>
<path d="M70.7572 61.6667C75.3774 61.6667 79.1298 57.8433 79.1298 53.132C79.1298 48.4108 75.3823 44.5924 70.7523 44.5924C66.1272 44.5924 62.3748 48.4108 62.3748 53.1271C62.3748 57.8433 66.1223 61.6667 70.7572 61.6667Z" fill="white"/>
</svg>
